# xmcd
#
# Track frame offsets:
#	213
#	13704
#	28359
#	42528
#	57128
#
# Disc length: 940 seconds
#
# Revision: 1
# Processed by: cddbd v1.5.2PL0 Copyright (c) Steve Scherf et al.
# Submitted via: dBpowerAMP V4.0
#
DISCID=3f03aa05
DTITLE=Tia - Slip n Slide
DYEAR=1900
DGENRE=Pop
TTITLE0=Slip n Slide [Original]
TTITLE1=Slip n Slide [Radio Slip Mix]
TTITLE2=Slip n Slide [Radio Slam Mix]
TTITLE3=Slip n Slide [Wet Bass Mix]
TTITLE4=Slip n Slide [Club Mix]
EXTD=
EXTT0=
EXTT1=
EXTT2=
EXTT3=
EXTT4=
PLAYORDER=
